<svg width="20" height="20" viewBox="0 0 20 20" fill="none" xmlns="http://www.w3.org/2000/svg">
<g clip-path="url(#clip0_3_5911)">
<path d="M9.99998 0.833984C11.2792 0.833984 12.4774 1.07079 13.5947 1.5444C14.7121 2.01801 15.6833 2.66732 16.5083 3.49232C17.3333 4.31732 17.9826 5.28853 18.4562 6.40594C18.9298 7.52322 19.1666 8.72144 19.1666 10.0006C19.1666 11.284 18.9298 12.4833 18.4562 13.5986C17.9826 14.7138 17.3333 15.684 16.5083 16.509C15.6833 17.334 14.7121 17.9833 13.5947 18.4569C12.4774 18.9305 11.2792 19.1673 9.99998 19.1673C8.71665 19.1673 7.51732 18.9305 6.40206 18.4569C5.2868 17.9833 4.31665 17.334 3.49165 16.509C2.66665 15.684 2.01734 14.7138 1.54373 13.5986C1.07012 12.4833 0.833313 11.284 0.833313 10.0006C0.833313 8.72144 1.07012 7.52322 1.54373 6.40594C2.01734 5.28853 2.66665 4.31732 3.49165 3.49232C4.31665 2.66732 5.2868 2.01801 6.40206 1.5444C7.51732 1.07079 8.71665 0.833984 9.99998 0.833984ZM9.99998 17.7923C12.1694 17.7923 14.0104 17.0361 15.5229 15.5236C17.0354 14.0111 17.7916 12.1701 17.7916 10.0006C17.7916 7.83122 17.0354 5.99023 15.5229 4.47773C14.0104 2.96523 12.1694 2.20898 9.99998 2.20898C7.83055 2.20898 5.98956 2.96523 4.47706 4.47773C2.96456 5.99023 2.20831 7.83122 2.20831 10.0006C2.20831 12.1701 2.96456 14.0111 4.47706 15.5236C5.98956 17.0361 7.83055 17.7923 9.99998 17.7923ZM8.02915 5.27982C8.02915 5.86039 8.21248 6.33398 8.57915 6.70065C8.94581 7.06732 9.41941 7.25065 9.99998 7.25065C10.5805 7.25065 11.0541 7.06732 11.4208 6.70065C11.7875 6.33398 11.9708 5.86039 11.9708 5.27982C11.9708 4.69925 11.7875 4.22565 11.4208 3.85898C11.0541 3.49232 10.5805 3.30898 9.99998 3.30898C9.41941 3.30898 8.94581 3.49232 8.57915 3.85898C8.21248 4.22565 8.02915 4.69925 8.02915 5.27982ZM10.0055 8.16732C8.88655 8.16732 7.84201 8.34799 6.87185 8.7093C5.9017 9.0706 5.41665 9.73023 5.41665 10.6881V14.3319C5.41665 15.2916 5.90042 15.9441 6.86796 16.2892C7.83564 16.6343 8.87967 16.8069 9.99998 16.8069C10.2533 16.8069 10.4656 16.7213 10.6368 16.55C10.8081 16.3786 10.8937 16.1663 10.8937 15.9131C10.8937 15.66 10.8081 15.4477 10.6368 15.2763C10.4656 15.105 10.2533 15.0194 9.99998 15.0194C9.63331 14.9888 9.2743 14.9315 8.9229 14.8475C8.57149 14.7635 8.22774 14.6451 7.89165 14.4923C7.76941 14.4312 7.67774 14.3472 7.61665 14.2402C7.55555 14.1333 7.55555 14.0187 7.61665 13.8965C7.84581 13.4992 8.18576 13.251 8.63644 13.1517C9.08712 13.0524 9.54165 13.0027 9.99998 13.0027C10.5805 13.0027 11.142 13.0524 11.6844 13.1517C12.2267 13.251 12.4979 13.5527 12.4979 14.0569V15.5236C12.4979 15.6916 12.5514 15.8329 12.6583 15.9475C12.7652 16.0621 12.9027 16.1194 13.0708 16.1194C13.5139 16.1194 13.8767 15.9399 14.1594 15.5809C14.442 15.2218 14.5833 14.8055 14.5833 14.3319V10.6881C14.5833 9.73023 14.1001 9.0706 13.1336 8.7093C12.1673 8.34799 11.1246 8.16732 10.0055 8.16732ZM9.99998 12.4986C9.64065 12.4986 9.33691 12.3745 9.08881 12.1264C8.84072 11.8783 8.71665 11.5746 8.71665 11.2152C8.71665 10.8559 8.84072 10.5522 9.08881 10.3041C9.33691 10.056 9.64065 9.9319 9.99998 9.9319C10.3593 9.9319 10.663 10.056 10.9111 10.3041C11.1592 10.5522 11.2833 10.8559 11.2833 11.2152C11.2833 11.5746 11.1592 11.8783 10.9111 12.1264C10.663 12.3745 10.3593 12.4986 9.99998 12.4986Z" fill="#7D7474"/>
</g>
<defs>
<clipPath id="clip0_3_5911">
<rect width="20" height="20" fill="white"/>
</clipPath>
</defs>
</svg>
