<svg width="21" height="21" viewBox="0 0 21 21" fill="none" xmlns="http://www.w3.org/2000/svg">
<g clip-path="url(#clip0_3_5914)">
<path d="M7.31935 11.1597C6.50329 11.1597 5.99326 10.2764 6.40125 9.5696C6.80925 8.86286 7.82933 8.8628 8.2374 9.56952C8.33045 9.73068 8.37944 9.91351 8.37944 10.0996C8.37944 10.6851 7.9048 11.1597 7.31935 11.1597ZM13.6799 9.03952C12.8639 9.03952 12.3538 9.92293 12.7619 10.6297C13.1699 11.3364 14.19 11.3364 14.598 10.6297C14.691 10.4685 14.74 10.2857 14.74 10.0996C14.74 9.51413 14.2654 9.03952 13.6799 9.03952ZM12.596 13.0352C11.312 13.8321 9.68726 13.8321 8.4033 13.0352C7.9429 12.7448 7.3408 13.0617 7.31953 13.6056C7.30965 13.858 7.43519 14.0966 7.64886 14.2313C9.39374 15.3191 11.6055 15.3191 13.3504 14.2313C13.8108 13.941 13.7842 13.2611 13.3025 13.0076C13.079 12.8899 12.8096 12.9004 12.596 13.0352ZM19.6871 10.0996C19.6871 17.1722 12.0309 21.5925 5.90589 18.0562C-0.219117 14.5199 -0.219117 5.67927 5.90589 2.143C7.30256 1.33663 8.88689 0.912109 10.4996 0.912109C15.5715 0.917471 19.6818 5.02771 19.6871 10.0996ZM18.2737 10.0996C18.2686 5.94255 14.9978 2.52318 10.8451 2.33352C9.82117 3.7726 9.79291 5.14189 9.79291 5.15249C9.79291 5.69654 10.3818 6.03656 10.853 5.76454C11.0717 5.6383 11.2064 5.40498 11.2064 5.15249C11.2064 4.60845 11.7953 4.26843 12.2665 4.54045C12.4851 4.66669 12.6198 4.9 12.6198 5.15249C12.6198 6.78462 10.853 7.8047 9.43954 6.98863C8.78355 6.6099 8.37944 5.90997 8.37944 5.15249C8.37944 5.08801 8.39093 3.88921 9.12681 2.4466C3.23641 3.5034 0.698915 10.5405 4.55934 15.1133C8.41976 19.6861 15.7828 18.3651 17.8128 12.7355C18.1176 11.8901 18.2735 10.9983 18.2737 10.0996Z" fill="#7D7474"/>
</g>
<defs>
<clipPath id="clip0_3_5914">
<rect width="20" height="20" fill="white" transform="translate(0.5 0.0996094)"/>
</clipPath>
</defs>
</svg>
