<svg width="20" height="20" viewBox="0 0 20 20" fill="none" xmlns="http://www.w3.org/2000/svg">
<path fill-rule="evenodd" clip-rule="evenodd" d="M15.7594 1.4875C15.7032 1.26256 15.5301 1.08526 15.3064 1.02337C15.0827 0.961475 14.843 1.02456 14.6789 1.18851L12.1019 3.76283C11.9419 3.92268 11.8775 4.15468 11.9324 4.374L12.3973 6.2317C12.3911 6.23759 12.3849 6.24358 12.3788 6.24968L9.29651 9.32875C8.91912 9.70576 8.91912 10.317 9.29651 10.694C9.67391 11.071 10.2858 11.071 10.6632 10.694L13.7455 7.61491C13.7518 7.60867 13.7579 7.60238 13.7639 7.59602L15.6225 8.06015C15.842 8.11499 16.0742 8.05073 16.2342 7.89088L18.8113 5.31655C18.9754 5.15261 19.0386 4.91313 18.9766 4.68968C18.9146 4.46625 18.7372 4.29336 18.512 4.23712L16.31 3.6872L15.7594 1.4875ZM10.3891 1.97578C10.4261 2.50766 10.0244 2.96878 9.492 3.00574C8.14597 3.09915 6.85507 3.57658 5.77267 4.38131C4.69026 5.18604 3.86186 6.28425 3.38587 7.54544C2.90988 8.80665 2.80632 10.1778 3.08749 11.4961C3.36866 12.8144 4.02273 14.0243 4.97201 14.9821C5.9213 15.94 7.12586 16.6055 8.44264 16.8996C9.75941 17.1937 11.133 17.1041 12.4003 16.6413C13.6675 16.1785 14.7751 15.3621 15.5915 14.289C16.4079 13.2158 16.8989 11.9311 17.0059 10.5875C17.0482 10.0561 17.5139 9.6595 18.0459 9.70178C18.5779 9.74407 18.9749 10.2092 18.9325 10.7407C18.7962 12.4528 18.1708 14.0897 17.1304 15.4572C16.0901 16.8246 14.6786 17.865 13.0639 18.4546C11.4491 19.0444 9.69878 19.1586 8.0209 18.7839C6.34303 18.409 4.8081 17.5611 3.59849 16.3406C2.38887 15.12 1.55542 13.5782 1.19715 11.8984C0.838872 10.2186 0.970836 8.47142 1.57736 6.86435C2.18388 5.25727 3.23947 3.85789 4.61871 2.83246C5.99796 1.80704 7.64288 1.19867 9.35806 1.07964C9.89049 1.04269 10.3521 1.44391 10.3891 1.97578ZM9.52355 6.22323C9.71811 6.7197 9.47295 7.27972 8.97595 7.47408C8.55304 7.63947 8.17807 7.90756 7.88494 8.2541C7.59182 8.60064 7.38978 9.01471 7.29712 9.45885C7.20445 9.90299 7.22406 10.3632 7.3542 10.7979C7.48433 11.2325 7.72087 11.6279 8.04242 11.9483C8.36399 12.2687 8.76041 12.504 9.19588 12.6329C9.63133 12.7617 10.0921 12.7802 10.5364 12.6864C10.9808 12.5927 11.3948 12.3898 11.741 12.0961C12.0871 11.8024 12.3545 11.4272 12.519 11.0043C12.7123 10.5073 13.2722 10.261 13.7697 10.454C14.2672 10.6471 14.5138 11.2065 14.3205 11.7035C14.0398 12.4255 13.5832 13.0662 12.9922 13.5677C12.4012 14.0691 11.6944 14.4155 10.9357 14.5755C10.177 14.7355 9.39033 14.7041 8.64684 14.4841C7.90337 14.264 7.22652 13.8623 6.67751 13.3153C6.1285 12.7683 5.72464 12.0932 5.50246 11.3511C5.28029 10.609 5.24678 9.82321 5.405 9.06491C5.56322 8.30659 5.90817 7.59965 6.40862 7.00798C6.9091 6.41631 7.54931 5.95859 8.27137 5.67621C8.76836 5.48185 9.32898 5.72676 9.52355 6.22323Z" fill="#B9B5B1"/>
</svg>
