<svg width="75" height="75" viewBox="0 0 75 75" fill="none" xmlns="http://www.w3.org/2000/svg">
<path d="M41.8944 52.8809H37.4999V48.4863C37.498 46.7387 36.8029 45.0631 35.5671 43.8273C34.3313 42.5916 32.6557 41.8965 30.9081 41.8945H22.119C20.3714 41.8965 18.6958 42.5916 17.46 43.8273C16.2242 45.0631 15.5291 46.7387 15.5272 48.4863V52.8809H11.1327V48.4863C11.1361 45.5736 12.2947 42.7812 14.3543 40.7216C16.4139 38.662 19.2063 37.5034 22.119 37.5H30.9081C33.8208 37.5034 36.6132 38.662 38.6728 40.7216C40.7324 42.7812 41.891 45.5736 41.8944 48.4863V52.8809Z" fill="#FFF8EE"/>
<path d="M26.5136 15.5273C27.8173 15.5273 29.0917 15.9139 30.1758 16.6383C31.2598 17.3626 32.1047 18.3921 32.6036 19.5966C33.1025 20.8011 33.233 22.1265 32.9787 23.4051C32.7243 24.6838 32.0965 25.8584 31.1747 26.7802C30.2528 27.7021 29.0782 28.3299 27.7996 28.5843C26.5209 28.8386 25.1955 28.7081 23.991 28.2092C22.7865 27.7103 21.757 26.8654 21.0327 25.7813C20.3084 24.6973 19.9218 23.4229 19.9218 22.1191C19.9218 20.3709 20.6162 18.6942 21.8524 17.458C23.0887 16.2218 24.7653 15.5273 26.5136 15.5273ZM26.5136 11.1328C24.3407 11.1328 22.2166 11.7771 20.4099 12.9843C18.6032 14.1915 17.195 15.9074 16.3635 17.9149C15.532 19.9223 15.3144 22.1313 15.7383 24.2625C16.1622 26.3936 17.2086 28.3512 18.745 29.8876C20.2815 31.4241 22.2391 32.4705 24.3702 32.8944C26.5014 33.3183 28.7104 33.1007 30.7178 32.2692C32.7253 31.4377 34.4412 30.0295 35.6484 28.2228C36.8555 26.4161 37.4999 24.292 37.4999 22.1191C37.4999 19.2054 36.3424 16.411 34.2821 14.3506C32.2217 12.2903 29.4273 11.1328 26.5136 11.1328Z" fill="#FFF8EE"/>
<path d="M6.73816 59.4727H68.2616V63.8672H6.73816V59.4727Z" fill="#FFF8EE"/>
<path d="M50.6835 11.1328V15.5273H60.7601L46.2889 29.9985L49.3959 33.1055L63.8671 18.6343V28.7109H68.2616V11.1328H50.6835Z" fill="#FFF8EE"/>
</svg>
