<svg width="26" height="26" viewBox="0 0 26 26" fill="none" xmlns="http://www.w3.org/2000/svg">
<path fill-rule="evenodd" clip-rule="evenodd" d="M13 0.5C8.28595 0.5 5.92894 0.5 4.46446 1.96446C3.1356 3.29334 3.01255 5.35712 3.00116 9.25H1.75C1.05965 9.25 0.5 9.80965 0.5 10.5V11.75C0.5 12.1435 0.685237 12.5139 1 12.75L3 14.25C3.01139 18.1429 3.1356 20.2066 4.46446 21.5355C4.76719 21.8382 5.10806 22.0784 5.5 22.2689V24.2499C5.5 24.9402 6.05965 25.4999 6.75 25.4999H8.625C9.31535 25.4999 9.875 24.9402 9.875 24.2499V22.9769C10.7839 23 11.8177 23 13 23C14.1823 23 15.2161 23 16.125 22.9769V24.2499C16.125 24.9402 16.6846 25.4999 17.375 25.4999H19.25C19.9404 25.4999 20.5 24.9402 20.5 24.2499V22.2689C20.892 22.0784 21.2327 21.8382 21.5355 21.5355C22.8644 20.2066 22.9886 18.1429 23 14.25L25 12.75C25.3148 12.5139 25.5 12.1435 25.5 11.75V10.5C25.5 9.80965 24.9404 9.25 24.25 9.25H22.9989C22.9875 5.35712 22.8644 3.29334 21.5355 1.96446C20.0711 0.5 17.714 0.5 13 0.5ZM4.875 9.875C4.875 11.6427 4.875 12.5266 5.42417 13.0759C5.97335 13.625 6.85724 13.625 8.625 13.625H17.375C19.1427 13.625 20.0266 13.625 20.5759 13.0759C21.125 12.5266 21.125 11.6427 21.125 9.875V6.75C21.125 4.98224 21.125 4.09835 20.5759 3.54917C20.0266 3 19.1427 3 17.375 3H8.625C6.85724 3 5.97335 3 5.42417 3.54917C4.875 4.09835 4.875 4.98224 4.875 6.75V9.875ZM5.8125 18C5.8125 17.4822 6.23224 17.0625 6.75 17.0625H8.625C9.14276 17.0625 9.5625 17.4822 9.5625 18C9.5625 18.5177 9.14276 18.9375 8.625 18.9375H6.75C6.23224 18.9375 5.8125 18.5177 5.8125 18ZM20.1875 18C20.1875 17.4822 19.7677 17.0625 19.25 17.0625H17.375C16.8573 17.0625 16.4375 17.4822 16.4375 18C16.4375 18.5177 16.8573 18.9375 17.375 18.9375H19.25C19.7677 18.9375 20.1875 18.5177 20.1875 18Z" fill="#F19A07"/>
</svg>
