<svg width="71" height="75" viewBox="0 0 71 75" fill="none" xmlns="http://www.w3.org/2000/svg">
<path d="M57.2044 64.4543L54.0917 61.3097L59.5018 55.7694H44.309V51.2772H59.5018L54.0917 45.7368L57.2044 42.5923L68.0247 53.5233L57.2044 64.4543ZM31.1912 45.7368C33.7307 45.7368 36.0208 45.1379 38.0613 43.9399C40.1019 42.742 41.7398 41.1448 42.9749 39.1483C41.2951 37.8505 39.4616 36.8772 37.4744 36.2284C35.4877 35.5795 33.3879 35.255 31.1749 35.255C28.9624 35.255 26.868 35.5795 24.8917 36.2284C22.9154 36.8772 21.0873 37.8505 19.4074 39.1483C20.6426 41.1448 22.2805 42.742 24.321 43.9399C26.3616 45.1379 28.6517 45.7368 31.1912 45.7368ZM31.1979 30.7629C32.6263 30.7629 33.8469 30.249 34.8597 29.2213C35.8725 28.1936 36.379 26.9583 36.379 25.5152C36.379 24.0722 35.8703 22.8391 34.853 21.8159C33.8358 20.7927 32.6129 20.2811 31.1845 20.2811C29.7561 20.2811 28.5355 20.795 27.5227 21.8227C26.5099 22.8503 26.0034 24.0857 26.0034 25.5287C26.0034 26.9718 26.5121 28.2049 27.5293 29.228C28.5466 30.2512 29.7694 30.7629 31.1979 30.7629ZM31.1912 67.4491C23.2365 60.6109 17.2953 54.2595 13.3673 48.3947C9.43942 42.5298 7.47546 37.1018 7.47546 32.1105C7.47546 24.6235 9.85938 18.659 14.6272 14.2166C19.3951 9.77436 24.9165 7.55322 31.1912 7.55322C37.4659 7.55322 42.9872 9.77436 47.7551 14.2166C52.523 18.659 54.9069 24.6235 54.9069 32.1105C54.9069 32.9091 54.874 33.7172 54.8084 34.5348C54.7421 35.3524 54.5774 36.1914 54.314 37.0519H49.645C49.8921 36.2033 50.0897 35.3641 50.2379 34.534C50.3861 33.7045 50.4602 32.8966 50.4602 32.1105C50.4602 26.2313 48.6003 21.4172 44.8804 17.6681C41.1604 13.9197 36.5973 12.0454 31.1912 12.0454C25.785 12.0454 21.222 13.9197 17.502 17.6681C13.7821 21.4172 11.9222 26.2313 11.9222 32.1105C11.9222 35.854 13.5279 40.184 16.7394 45.1004C19.951 50.0168 24.7682 55.4949 31.1912 61.5343C32.3276 60.536 33.3775 59.5379 34.3409 58.5396C35.3044 57.5412 36.2555 56.5679 37.1942 55.6196L37.7071 56.1033C38.0495 56.4257 38.42 56.7752 38.8188 57.1515C39.2179 57.5278 39.5906 57.8782 39.9364 58.2026L40.4551 58.6893C39.0718 60.1368 37.6186 61.585 36.0959 63.034C34.5732 64.483 32.9383 65.9547 31.1912 67.4491Z" fill="#FFF8EE"/>
</svg>
