<svg width="32" height="32" viewBox="0 0 32 32" fill="none" xmlns="http://www.w3.org/2000/svg">
<path fill-rule="evenodd" clip-rule="evenodd" d="M18.5099 24.7536L18.5171 22.25C18.5171 21.5596 19.0781 21 19.7702 21C20.4622 21 21.0234 21.5596 21.0234 22.25V24.7206C21.0234 25.3225 21.0234 25.6235 21.2164 25.808C21.4094 25.9926 21.7046 25.98 22.2952 25.955C24.6239 25.8565 26.0546 25.5415 27.063 24.5355C28.0739 23.5273 28.3887 22.0957 28.4867 19.7631C28.5062 19.3006 28.516 19.0693 28.4296 18.915C28.3432 18.7606 27.9984 18.5681 27.3086 18.1829C26.5426 17.7551 26.0249 16.9379 26.0249 16C26.0249 15.0621 26.5426 14.2449 27.3086 13.8171C27.9984 13.4319 28.3432 13.2393 28.4296 13.085C28.516 12.9307 28.5062 12.6994 28.4867 12.2368C28.3887 9.90424 28.0739 8.47279 27.063 7.46446C25.9659 6.37005 24.369 6.0935 21.6597 6.02362C21.3102 6.01461 21.0234 6.29648 21.0234 6.64523V9.75C21.0234 10.4404 20.4622 11 19.7702 11C19.0781 11 18.5171 10.4404 18.5171 9.75L18.508 6.62319C18.507 6.27873 18.2267 6 17.8815 6H13.4938C8.76799 6 6.40509 6 4.93697 7.46446C3.92614 8.47279 3.61129 9.90424 3.51322 12.2368C3.49377 12.6994 3.48405 12.9307 3.57042 13.085C3.65681 13.2393 4.00166 13.4319 4.69135 13.8171C5.45732 14.2449 5.97509 15.0621 5.97509 16C5.97509 16.9379 5.45732 17.7551 4.69135 18.1829C4.00166 18.5681 3.65681 18.7606 3.57042 18.915C3.48405 19.0693 3.49377 19.3006 3.51322 19.7631C3.61129 22.0957 3.92614 23.5273 4.93697 24.5355C6.40509 26 8.76797 26 13.4938 26H17.2567C17.8459 26 18.1405 26 18.3239 25.8176C18.5072 25.6351 18.5081 25.3414 18.5099 24.7536ZM21.0234 17.25V14.75C21.0234 14.0596 20.4622 13.5 19.7702 13.5C19.0781 13.5 18.5171 14.0596 18.5171 14.75V17.25C18.5171 17.9404 19.0781 18.5 19.7702 18.5C20.4622 18.5 21.0234 17.9404 21.0234 17.25Z" fill="#F19A07"/>
</svg>
