<svg width="121" height="51" viewBox="0 0 121 51" fill="none" xmlns="http://www.w3.org/2000/svg">
<path d="M7.32731 41.6646L5.25379 48.8406C5.14573 49.2369 4.99126 49.5315 4.79038 49.7245C4.5895 49.9176 4.29309 50.0144 3.90081 50.0144C3.56747 50.0144 3.30019 49.9227 3.09897 49.7396C2.89843 49.5562 2.74362 49.2615 2.6359 48.8553L0.385888 39.986C0.336769 39.7084 0.312378 39.5202 0.312378 39.4213C0.312378 39.1243 0.417731 38.8813 0.628436 38.6934C0.839481 38.5052 1.10642 38.4111 1.42993 38.4111C1.68501 38.4111 1.90791 38.4853 2.09931 38.6339C2.29037 38.7824 2.41062 38.9706 2.45941 39.1985L4.06239 47.0727L6.2687 39.4658C6.35678 39.139 6.48415 38.8813 6.65082 38.6934C6.81749 38.5052 7.06749 38.4111 7.40082 38.4111C7.76363 38.4111 8.02853 38.5001 8.1952 38.6784C8.36153 38.8567 8.48416 39.0993 8.56275 39.4063L10.5628 47.1172L12.4012 39.139C12.4601 38.921 12.5753 38.7451 12.7467 38.6113C12.9181 38.4778 13.1268 38.4111 13.3717 38.4111C13.6661 38.4111 13.9086 38.5025 14.0997 38.6859C14.2908 38.869 14.3866 39.0993 14.3866 39.3768C14.3866 39.4956 14.3572 39.654 14.2985 39.8522L11.7982 48.8255C11.5824 49.6181 11.1559 50.0144 10.5187 50.0144C9.80293 50.0144 9.35205 49.6229 9.16573 48.8406L8.10679 44.6658L7.32731 41.6646Z" fill="#3F3D3D"/>
<path d="M31.2709 43.2691C31.526 43.2691 31.7391 43.3533 31.9105 43.5216C32.0822 43.69 32.1679 43.8977 32.1679 44.1455C32.1679 44.3929 32.0798 44.6037 31.9034 44.7769C31.7269 44.9504 31.5162 45.037 31.2709 45.037H27.5354V48.053H31.7563C32.0111 48.053 32.2245 48.1396 32.3962 48.3131C32.5673 48.4862 32.6534 48.6967 32.6534 48.9445C32.6534 49.1922 32.5653 49.4027 32.3884 49.5759C32.2123 49.749 32.0016 49.8359 31.7563 49.8359H26.4914C26.197 49.8359 25.9494 49.7319 25.7485 49.5238C25.5476 49.3158 25.447 49.0683 25.447 48.7809V39.6737C25.447 39.3862 25.5476 39.1388 25.7485 38.9307C25.9494 38.7227 26.197 38.6186 26.4914 38.6186H31.7414C31.9867 38.6186 32.1974 38.7056 32.3739 38.8787C32.5504 39.0519 32.6388 39.2627 32.6388 39.5101C32.6388 39.7579 32.5504 39.9684 32.3739 40.1419C32.1974 40.3147 31.9867 40.4016 31.7414 40.4016H27.5354V43.2691H31.2709Z" fill="#3F3D3D"/>
<path d="M43.471 49.4346C43.368 49.2861 43.3169 49.1126 43.3169 48.9148C43.3169 48.7067 43.3731 48.5233 43.4859 48.3652C43.5987 48.2064 43.7481 48.1075 43.9344 48.0678C44.0716 48.038 44.2136 48.0281 44.3609 48.038C44.4294 48.048 44.5327 48.0726 44.6695 48.1123C44.9443 48.1718 45.1452 48.2016 45.2725 48.2016C45.8023 48.2016 46.2065 48.0924 46.4859 47.8748C46.7654 47.6568 46.905 47.2407 46.905 46.6267V40.4756H44.4344C44.1892 40.4756 43.9809 40.3843 43.8091 40.2008C43.6377 40.0177 43.552 39.7974 43.552 39.54C43.552 39.2922 43.6377 39.077 43.8091 38.8936C43.9809 38.7105 44.1892 38.6188 44.4344 38.6188H48.111C48.3562 38.6188 48.5645 38.7077 48.736 38.8864C48.9077 39.0643 48.9934 39.2772 48.9934 39.525V46.6712C48.9934 47.83 48.6675 48.6845 48.0154 49.2341C47.3637 49.7837 46.5178 50.0588 45.4785 50.0588C44.8999 50.0588 44.3708 49.9596 43.8904 49.7614C43.7139 49.6923 43.574 49.5835 43.471 49.4346Z" fill="#3F3D3D"/>
<path d="M68.7597 50.0144C68.4657 50.0144 68.2181 49.9131 68.0168 49.7098C67.816 49.5069 67.7153 49.2567 67.7153 48.9597V44.9927H62.9945V48.9597C62.9945 49.2567 62.8918 49.5069 62.6859 49.7098C62.4799 49.9131 62.235 50.0144 61.9504 50.0144C61.6564 50.0144 61.4087 49.9131 61.2079 49.7098C61.0066 49.5069 60.9064 49.2567 60.9064 48.9597V39.4661C60.9064 39.1787 61.0066 38.9313 61.2079 38.7232C61.4087 38.5151 61.6564 38.4111 61.9504 38.4111C62.235 38.4111 62.4799 38.5151 62.6859 38.7232C62.8918 38.9313 62.9945 39.1787 62.9945 39.4661V43.1207H67.7153V39.4661C67.7153 39.1787 67.816 38.9313 68.0168 38.7232C68.2181 38.5151 68.4657 38.4111 68.7597 38.4111C69.0439 38.4111 69.2889 38.5151 69.4948 38.7232C69.7008 38.9313 69.8038 39.1787 69.8038 39.4661V48.9597C69.8038 49.2567 69.7008 49.5069 69.4948 49.7098C69.2889 49.9131 69.0439 50.0144 68.7597 50.0144Z" fill="#3F3D3D"/>
<path d="M85.4968 41.0703L83.8938 45.7355H86.9676L85.4968 41.0703ZM82.6733 49.3011C82.5947 49.529 82.4744 49.7073 82.3128 49.8359C82.1509 49.9646 81.9527 50.0293 81.7173 50.0293C81.4426 50.0293 81.2075 49.9301 81.0113 49.7319C80.8152 49.5338 80.7173 49.2963 80.7173 49.0187C80.7173 48.8702 80.7468 48.7217 80.8054 48.5731L84.1289 39.7329C84.2861 39.3072 84.4724 38.9852 84.6878 38.7675C84.9036 38.5495 85.2075 38.4403 85.5998 38.4403C86.0212 38.4403 86.3376 38.5495 86.5483 38.7675C86.759 38.9852 86.9331 39.2973 87.0703 39.7035L90.1292 48.4541C90.1882 48.6426 90.2177 48.7959 90.2177 48.9147C90.2177 49.222 90.1099 49.4845 89.8942 49.7021C89.6784 49.9201 89.4185 50.0293 89.1147 50.0293C88.8694 50.0293 88.6489 49.955 88.4528 49.8062C88.257 49.6576 88.1245 49.4646 88.0557 49.2268L87.4968 47.4291H83.3203L82.6733 49.3011Z" fill="#3F3D3D"/>
<path d="M104.374 49.7023C104.172 49.9104 103.925 50.0144 103.631 50.0144C103.346 50.0144 103.102 49.9104 102.896 49.7023C102.69 49.4942 102.587 49.2468 102.587 48.9593V40.4316H100.072C99.8268 40.4316 99.6157 40.3422 99.4396 40.1639C99.2631 39.9856 99.1747 39.7728 99.1747 39.525C99.1747 39.2776 99.2631 39.0647 99.4396 38.8864C99.6157 38.7081 99.8268 38.6192 100.072 38.6192H107.146C107.391 38.6192 107.599 38.7081 107.771 38.8864C107.942 39.0647 108.028 39.2776 108.028 39.525C108.028 39.7728 107.942 39.9856 107.771 40.1639C107.599 40.3422 107.391 40.4316 107.146 40.4316H104.675V48.9593C104.675 49.2468 104.574 49.4942 104.374 49.7023Z" fill="#3F3D3D"/>
<path d="M119.956 50.0144C119.662 50.0144 119.414 49.9131 119.213 49.7098C119.012 49.5069 118.912 49.2567 118.912 48.9597V39.4661C118.912 39.1787 119.012 38.9313 119.213 38.7232C119.414 38.5151 119.662 38.4111 119.956 38.4111C120.24 38.4111 120.485 38.5151 120.691 38.7232C120.897 38.9313 121 39.1787 121 39.4661V48.9597C121 49.2567 120.897 49.5069 120.691 49.7098C120.485 49.9131 120.24 50.0144 119.956 50.0144Z" fill="#3F3D3D"/>
<path d="M115.806 16.3139C114.98 16.6849 113.675 16.8697 111.894 16.8697C110.082 16.8697 108.801 16.612 108.054 16.097C107.308 15.584 106.932 14.6997 106.932 13.4465C106.932 11.9684 107.418 10.772 108.388 9.85761C109.359 8.9408 110.622 8.48256 112.181 8.48256C114.088 8.48256 115.449 9.14168 116.26 10.4596C117.071 11.7757 117.492 13.2216 117.523 14.7972C117.205 15.4399 116.633 15.945 115.806 16.3139ZM118.763 7.08562C117.332 4.86906 115.202 3.75993 112.372 3.75993C110.686 3.75993 109.175 4.18564 107.84 5.03743C106.505 5.88922 105.463 7.06133 104.714 8.55546C103.968 10.0499 103.594 11.7453 103.594 13.6391C103.594 16.2753 104.23 18.2584 105.501 19.5907C106.774 20.925 108.731 21.5923 111.37 21.5923C114.709 21.5923 116.856 20.4182 117.81 18.074V18.1226C117.587 24.9646 114.44 28.3875 108.364 28.3875C107.252 28.3875 106.059 28.1948 104.787 27.8074C104.532 27.7444 104.325 27.7119 104.166 27.7119C103.626 27.7119 103.165 27.9128 102.783 28.3142C102.402 28.716 102.211 29.2228 102.211 29.833C102.211 30.3463 102.378 30.8124 102.711 31.2303C103.046 31.6481 103.482 31.9845 104.024 32.2422C105.295 32.8199 106.886 33.1101 108.793 33.1101C111.306 33.1101 113.468 32.451 115.281 31.1331C117.093 29.8169 118.486 27.9535 119.455 25.5422C120.425 23.1334 120.911 20.3391 120.911 17.1575V15.3752C120.911 12.0656 120.194 9.30389 118.763 7.08562Z" fill="#F19A07"/>
<path d="M61.6661 27.6049C61.5899 27.7733 61.4252 27.8725 61.2545 27.8725C61.1905 27.8725 61.1281 27.8605 61.0658 27.8321C60.8392 27.7285 60.7386 27.4567 60.8412 27.2257C61.14 26.5605 61.2989 25.8185 61.2989 25.0824C61.2989 24.9791 61.2968 24.8754 61.2907 24.772C61.2748 24.5208 61.4652 24.3039 61.7162 24.2874C61.9632 24.2734 62.18 24.4661 62.1939 24.7173C62.202 24.8391 62.204 24.9606 62.204 25.0824C62.204 25.9605 62.0235 26.8099 61.6661 27.6049ZM60.3714 22.1095C60.2006 21.8642 60.0082 21.6332 59.7972 21.4203L59.119 20.7348C58.9422 20.5562 58.9422 20.2663 59.119 20.088C59.2955 19.9094 59.5824 19.9094 59.7592 20.088L60.4377 20.7732C60.6844 21.0226 60.9113 21.2964 61.1122 21.5825C61.2565 21.7892 61.2064 22.0753 61.0018 22.2211C60.9235 22.2759 60.8331 22.3043 60.7426 22.3043C60.6004 22.3043 60.4598 22.2355 60.3714 22.1095ZM59.5445 30.1377C58.7335 30.6911 57.79 31.0401 56.8124 31.1455C56.7965 31.1455 56.7806 31.1476 56.7643 31.1476C56.5356 31.1476 56.3388 30.973 56.3148 30.7379C56.2887 30.4864 56.4692 30.2612 56.7162 30.2349C57.5472 30.1456 58.35 29.8495 59.0367 29.3814C59.2453 29.2394 59.5265 29.2941 59.6647 29.5029C59.8053 29.7137 59.7511 29.9977 59.5445 30.1377ZM54.1769 30.3707C54.1007 30.535 53.9381 30.6325 53.7697 30.6325C53.7033 30.6325 53.6369 30.6182 53.5749 30.5877C52.9547 30.2896 52.3927 29.8882 51.9049 29.3934C51.6962 29.1846 51.5034 28.9574 51.3286 28.7223C51.1803 28.5193 51.2202 28.2336 51.4211 28.0833C51.6217 27.9314 51.9069 27.9738 52.0553 28.1747C52.204 28.3756 52.3686 28.5683 52.5451 28.7466C52.9608 29.1665 53.4384 29.509 53.9641 29.7626C54.1891 29.8701 54.2853 30.1438 54.1769 30.3707ZM50.6501 26.0355C50.6362 26.0375 50.6244 26.0375 50.6101 26.0375C50.3794 26.0375 50.1806 25.8589 50.1606 25.6197C50.1443 25.4414 50.1366 25.2607 50.1366 25.0824C50.1366 24.2652 50.2951 23.4702 50.6081 22.7201C50.7043 22.4867 50.9696 22.3772 51.2002 22.4747C51.4309 22.5719 51.5397 22.8395 51.4431 23.0729C51.1762 23.7115 51.0417 24.3867 51.0417 25.0824C51.0417 25.2343 51.0498 25.3887 51.0617 25.5406C51.0837 25.7922 50.8991 26.0132 50.6501 26.0355ZM52.5532 20.1185L54.4719 18.1778C54.6488 17.9995 54.9357 17.9995 55.1125 18.1778C55.289 18.3561 55.289 18.6463 55.1125 18.8246L53.1935 20.7653C53.103 20.8543 52.9889 20.8991 52.8723 20.8991C52.7558 20.8991 52.6413 20.8543 52.5532 20.7653C52.3764 20.5867 52.3744 20.2968 52.5532 20.1185ZM56.6481 15.9797L58.5688 14.039C58.7457 13.8607 59.0326 13.8607 59.2091 14.039C59.3859 14.2176 59.3859 14.5075 59.2091 14.6857L57.2883 16.6265C57.1999 16.7158 57.0854 16.7603 56.9692 16.7603C56.8527 16.7603 56.7382 16.7158 56.6481 16.6265C56.4733 16.4482 56.4713 16.158 56.6481 15.9797ZM59.0306 4.83494C58.8239 4.69291 58.7697 4.40921 58.9083 4.20012C59.0485 3.98931 59.3297 3.93455 59.5363 4.07452C59.8595 4.29354 60.1606 4.54713 60.4377 4.82467C60.8571 5.24868 61.2105 5.72916 61.4876 6.25241C61.6058 6.47349 61.5235 6.75103 61.3046 6.87081C61.2365 6.90742 61.1623 6.92556 61.0899 6.92556C60.9293 6.92556 60.7728 6.83829 60.6905 6.6843C60.4537 6.2401 60.1546 5.83251 59.7972 5.47181C59.5624 5.23431 59.3056 5.01939 59.0306 4.83494ZM61.7684 9.01003C62.0194 9.0244 62.2081 9.24137 62.1939 9.4929C62.1376 10.4843 61.8388 11.4535 61.3307 12.2971C61.2467 12.4391 61.096 12.5161 60.9435 12.5161C60.8632 12.5161 60.7829 12.4959 60.7088 12.4514C60.4957 12.3196 60.4276 12.0376 60.558 11.8227C60.9876 11.1048 61.2426 10.2817 61.2907 9.4402C61.3046 9.18661 61.5235 8.99189 61.7684 9.01003ZM56.3971 3.95885H56.3791C55.5461 3.92463 54.705 4.09882 53.9564 4.45986C53.894 4.49032 53.8276 4.50435 53.7616 4.50435C53.5929 4.50435 53.4303 4.40921 53.354 4.24495C53.2456 4.01771 53.3419 3.74394 53.5668 3.63443C54.4459 3.21076 55.4357 3.00782 56.413 3.04444C56.664 3.05471 56.8588 3.26757 56.8486 3.51875C56.8385 3.76618 56.6379 3.95885 56.3971 3.95885ZM53.1975 13.4592C53.374 13.6375 53.374 13.9274 53.1975 14.106C53.1091 14.195 52.9946 14.2398 52.8784 14.2398C52.7619 14.2398 52.6454 14.195 52.5573 14.106L51.9049 13.4449C51.4431 12.9805 51.0637 12.4493 50.7748 11.8672C50.6623 11.642 50.7528 11.3666 50.9773 11.2529C51.2002 11.1393 51.4712 11.2327 51.5837 11.4576C51.8307 11.9524 52.1518 12.4028 52.5451 12.8001L53.1975 13.4592ZM50.5719 9.1014C50.3232 9.08121 50.1386 8.85808 50.1606 8.60655C50.245 7.6189 50.5702 6.65795 51.1 5.8284C51.2365 5.61554 51.5173 5.55668 51.7263 5.69254C51.937 5.83046 51.997 6.11245 51.8605 6.32531C51.4089 7.02891 51.1342 7.84613 51.0617 8.6856C51.0417 8.92481 50.8429 9.10345 50.6101 9.10345C50.5979 9.10345 50.584 9.10345 50.5719 9.1014ZM97.755 6.45911C95.7194 6.00909 93.9389 5.48789 92.4135 4.8938C90.8861 4.2997 89.2319 3.55127 87.4518 2.65294C85.5429 1.72039 83.945 1.04485 82.6584 0.627338C81.3698 0.209484 79.8982 0.000732422 78.2444 0.000732422C76.9737 0.000732422 75.7874 0.201271 74.6915 0.603039C73.5936 1.00652 72.7264 1.44661 72.0923 1.92914C71.2952 2.53932 70.8978 3.19844 70.8978 3.9041C70.8978 4.1943 70.9781 4.50024 71.1366 4.82056C71.4557 5.43108 71.9476 5.73737 72.616 5.73737C72.9033 5.73737 73.2362 5.65627 73.6177 5.49611C75.2075 4.78839 76.7027 4.43556 78.1018 4.43556C79.5652 4.43556 80.9321 4.63611 82.2048 5.03787C83.4771 5.4393 85.1292 6.0902 87.1645 6.98853C88.947 7.79138 90.8078 8.56411 92.7468 9.30228L90.5287 10.0483L88.4531 10.7478C85.7817 11.6807 84.1116 12.2423 83.4453 12.435C80.8057 13.2707 78.3247 13.8648 76.0022 14.2176C73.682 14.5725 71.0425 14.7487 68.0838 14.7487H64.1569C62.8161 14.7487 61.5275 15.2881 60.58 16.2452L57.9486 18.9057C57.7799 19.0761 57.6454 19.2667 57.5472 19.4714C57.16 20.2663 57.2941 21.256 57.9486 21.9169L58.5607 22.5356C59.2233 23.2046 59.6346 24.1009 59.6447 25.0478C59.6549 26.2179 59.1047 27.3007 58.1213 27.9902C57.7399 28.2579 57.3022 28.4423 56.8446 28.5275C55.4957 28.7852 54.181 28.262 53.3679 27.1587C53.0349 26.7045 52.8161 26.1713 52.7358 25.6115C52.5732 24.4821 52.9367 23.3891 53.7155 22.6023L61.6078 14.6272C63.059 13.1612 63.8599 11.2102 63.8599 9.13596C63.8599 7.06142 63.059 5.11077 61.6078 3.64264C58.4523 0.456913 53.2155 0.62323 50.2788 4.14331C49.1711 5.47386 48.5366 7.15861 48.4865 8.89675C48.4343 10.6547 48.9543 12.3337 49.9618 13.7186L49.2775 14.4103C49.0627 14.6272 48.7714 14.7487 48.4685 14.7487H41.8557C40.5207 14.7487 39.501 14.4589 38.8025 13.8808C38.102 13.3028 37.3716 12.3073 36.6087 10.8919L35.607 9.01413C34.7158 7.37558 33.9048 6.05769 33.1744 5.06217C32.4417 4.06631 31.4641 3.24703 30.2398 2.60434C29.0152 1.96165 27.4657 1.63928 25.589 1.63928C23.8387 1.63928 22.1707 2.08109 20.5809 2.96539C18.9891 3.84934 17.7025 5.02966 16.7147 6.50771C15.7292 7.9861 15.2374 9.55963 15.2374 11.2307C15.2374 13.5746 15.7211 15.3753 16.6926 16.6285C17.6622 17.8797 19.4508 18.7636 22.0582 19.2787C24.0934 19.664 25.5728 19.9843 26.4942 20.242C27.4176 20.4994 28.0779 20.8118 28.4752 21.1807C28.8726 21.5521 29.0714 22.0733 29.0714 22.7485C29.0714 24.6748 27.9976 26.0961 25.8519 27.0129C23.7042 27.9293 20.4843 28.3855 16.1909 28.3855C13.2021 28.3855 10.8396 28.0977 9.10725 27.5197C7.37316 26.94 6.12654 25.9927 5.36197 24.6748C4.80574 23.7156 4.45242 22.501 4.30201 21.0309C4.19971 20.0374 3.36264 19.289 2.37517 19.3013C1.25491 19.3153 0.391764 20.2906 0.490342 21.4183C0.815547 25.117 2.0398 27.905 4.16956 29.7849C6.68244 32.0011 10.6086 33.1082 15.9521 33.1082C21.3275 33.1082 25.4142 32.1855 28.2123 30.3382C31.0105 28.4909 32.4095 25.8811 32.4095 22.5072C32.4095 20.4508 31.8936 18.8126 30.86 17.5915C29.8262 16.3708 28.1802 15.503 25.922 14.99C25.9302 14.992 25.9362 14.9941 25.942 14.992C25.8658 14.9657 25.4285 14.8541 24.6354 14.6515C22.7587 14.2012 21.4461 13.8483 20.6991 13.591C19.9525 13.3333 19.4105 12.9969 19.0775 12.579C18.7421 12.1612 18.5754 11.5346 18.5754 10.6992C18.5754 9.96105 18.8946 9.26156 19.5311 8.60449C20.1652 7.94572 21.0084 7.40604 22.0582 6.98853C23.108 6.57068 24.19 6.36193 25.3018 6.36193C26.5745 6.36193 27.6243 6.57889 28.4512 7.01283C29.2781 7.44676 29.9766 8.04086 30.5508 8.79716C31.1229 9.55142 31.7893 10.6366 32.5542 12.05L33.7462 14.2176C34.4146 15.4708 35.0731 16.4581 35.7256 17.1822C36.3777 17.904 37.1887 18.4676 38.1582 18.8694C38.7181 19.1004 39.3665 19.2667 40.1053 19.3639C40.6413 19.4351 41.2232 19.4714 41.8557 19.4714H48.1332C49.4739 19.4714 50.7626 18.932 51.7101 17.9748L54.3676 15.2881C54.5282 15.1258 54.6586 14.9434 54.7572 14.7487C55.1586 13.95 55.0302 12.9459 54.3676 12.2769L53.7155 11.6177C52.9347 10.8289 52.5712 9.73006 52.7379 8.59662C52.8181 8.04086 53.037 7.50768 53.37 7.05732C54.2253 5.89958 55.6301 5.38454 57.0495 5.73327C57.3524 5.80821 57.6454 5.93004 57.9127 6.09225C59.0987 6.81194 59.7352 8.07337 59.6346 9.41179C59.5705 10.2715 59.1711 11.0685 58.5668 11.6787L50.7345 19.5911C49.2812 21.0572 48.4824 23.0079 48.4824 25.0824C48.4824 27.1587 49.2812 29.1097 50.7345 30.5757C52.2321 32.0904 54.2013 32.8467 56.1701 32.8467C58.1393 32.8467 60.1085 32.0904 61.6078 30.5757C63.059 29.1097 63.8599 27.1587 63.8599 25.0824C63.8599 23.3994 63.3341 21.7995 62.3605 20.4713L63.015 19.8102C63.2298 19.5932 63.5208 19.4714 63.8239 19.4714H68.0838C70.7874 19.4714 73.3386 19.2383 75.7413 18.7719C78.1421 18.3054 80.8538 17.5269 83.8748 16.4338C84.9545 16.0485 86.1631 15.5923 87.4999 15.0612C88.8346 14.5317 89.8684 14.1221 90.6012 13.8323C92.9213 12.8689 95.1957 11.9685 97.4216 11.1332C98.1222 10.8758 98.6459 10.5555 98.9952 10.1702C99.3465 9.78481 99.5212 9.26977 99.5212 8.62674C99.5212 7.47106 98.9332 6.74932 97.755 6.45911Z" fill="#F19A07"/>
<path d="M0.644312 8.5404C0.214771 8.99042 0 9.51984 0 10.1304C0 10.7405 0.214771 11.2638 0.644312 11.6977C1.07182 12.1317 1.58978 12.3486 2.19378 12.3486C2.79811 12.3486 3.32183 12.1317 3.76763 11.6977C4.21309 11.2638 4.43599 10.7405 4.43599 10.1304C4.43599 9.51984 4.21309 8.99042 3.76763 8.5404C3.32183 8.09038 2.79811 7.8652 2.19378 7.8652C1.58978 7.8652 1.07182 8.09038 0.644312 8.5404Z" fill="#F19A07"/>
<path d="M0.644312 13.8412C0.214771 14.2912 0 14.8227 0 15.4329C0 16.0434 0.214771 16.5646 0.644312 16.9985C1.07182 17.4324 1.58978 17.6494 2.19378 17.6494C2.79811 17.6494 3.32183 17.4324 3.76763 16.9985C4.21309 16.5646 4.43599 16.0434 4.43599 15.4329C4.43599 14.8227 4.21309 14.2912 3.76763 13.8412C3.32183 13.3929 2.79811 13.168 2.19378 13.168C1.58978 13.168 1.07182 13.3929 0.644312 13.8412Z" fill="#F19A07"/>
<path d="M84.2983 23.8805C83.8529 23.4465 83.3268 23.2296 82.7228 23.2296C82.1185 23.2296 81.6025 23.4465 81.173 23.8805C80.7435 24.3144 80.5287 24.8356 80.5287 25.4458C80.5287 26.0563 80.7435 26.5874 81.173 27.0378C81.6025 27.4858 82.1185 27.7109 82.7228 27.7109C83.3268 27.7109 83.8529 27.4858 84.2983 27.0378C84.7438 26.5874 84.9647 26.0563 84.9647 25.4458C84.9647 24.8356 84.7438 24.3144 84.2983 23.8805Z" fill="#F19A07"/>
<path d="M40.8239 0.651218C40.3784 0.217282 39.8523 0.000314713 39.2483 0.000314713C38.644 0.000314713 38.1281 0.217282 37.6985 0.651218C37.269 1.08515 37.0542 1.60635 37.0542 2.21653C37.0542 2.82705 37.269 3.35818 37.6985 3.80854C38.1281 4.25651 38.644 4.48169 39.2483 4.48169C39.8523 4.48169 40.3784 4.25651 40.8239 3.80854C41.2676 3.35818 41.4902 2.82705 41.4902 2.21653C41.4902 1.60635 41.2676 1.08515 40.8239 0.651218ZM46.0708 0.651218C45.6254 0.217282 45.0993 0.000314713 44.4949 0.000314713C43.8909 0.000314713 43.375 0.217282 42.9455 0.651218C42.5159 1.08515 42.3012 1.60635 42.3012 2.21653C42.3012 2.82705 42.5159 3.35818 42.9455 3.80854C43.375 4.25651 43.8909 4.48169 44.4949 4.48169C45.0993 4.48169 45.6254 4.25651 46.0708 3.80854C46.5163 3.35818 46.7372 2.82705 46.7372 2.21653C46.7372 1.60635 46.5163 1.08515 46.0708 0.651218Z" fill="#F19A07"/>
</svg>
