<svg xmlns="http://www.w3.org/2000/svg" width="83" height="34" fill="none"><path fill="#fff" d="m5.027 28.29-1.423 4.873q-.111.404-.317.6-.208.197-.61.197-.345 0-.55-.187-.207-.186-.318-.6L.265 27.15a3 3 0 0 1-.05-.384q0-.302.217-.494a.8.8 0 0 1 .55-.192q.261 0 .459.152.196.15.247.383l1.1 5.346L4.3 26.798q.09-.332.262-.524.171-.192.514-.192.373 0 .545.182.171.18.252.494l1.372 5.236 1.261-5.417a.66.66 0 0 1 .666-.495q.303 0 .5.187a.62.62 0 0 1 .196.469q0 .12-.06.323l-1.715 6.093q-.222.807-.878.807-.736 0-.928-.797l-.727-2.835zM21.45 29.38q.262 0 .439.171a.57.57 0 0 1 .176.424q0 .252-.181.429a.6.6 0 0 1-.434.176h-2.562v2.048h2.895q.262 0 .439.177.176.176.176.428 0 .253-.181.43a.6.6 0 0 1-.434.176h-3.611a.68.68 0 0 1-.51-.212.7.7 0 0 1-.207-.505V26.94q0-.292.207-.505a.68.68 0 0 1 .51-.212h3.6q.253 0 .435.177.18.176.181.429 0 .252-.181.428a.6.6 0 0 1-.434.177h-2.885v1.947zM29.819 33.566a.6.6 0 0 1-.106-.353q0-.21.116-.373a.5.5 0 0 1 .308-.202q.14-.03.292-.02.07.01.212.05.282.061.413.061.545 0 .833-.222t.287-.847v-4.177H30.48a.57.57 0 0 1-.43-.186.63.63 0 0 1-.176-.45q0-.251.177-.438a.57.57 0 0 1 .429-.187H33q.253 0 .43.182a.6.6 0 0 1 .176.434v4.852q0 1.18-.671 1.74-.67.56-1.74.56-.595 0-1.09-.202a.6.6 0 0 1-.287-.222M47.166 33.96a.7.7 0 0 1-.51-.207.7.7 0 0 1-.206-.51V30.55h-3.238v2.694q0 .302-.212.51a.7.7 0 0 1-.505.206.7.7 0 0 1-.509-.207.7.7 0 0 1-.207-.51v-6.445q0-.292.207-.505a.68.68 0 0 1 .51-.212q.293 0 .504.212.212.213.212.505v2.481h3.238v-2.481q0-.292.207-.505a.69.69 0 0 1 .51-.212q.291 0 .504.212.211.213.212.505v6.446q0 .302-.212.51a.7.7 0 0 1-.505.206M58.646 27.887l-1.1 3.167h2.109zm-1.937 5.588a.77.77 0 0 1-.247.363.64.64 0 0 1-.409.132.66.66 0 0 1-.484-.202.66.66 0 0 1-.202-.485q0-.15.06-.302l2.28-6.003q.162-.433.384-.655t.625-.222q.434 0 .651.222t.358.636l2.098 5.941q.06.192.061.313a.73.73 0 0 1-.222.535.73.73 0 0 1-.535.222.74.74 0 0 1-.454-.152.74.74 0 0 1-.272-.393l-.383-1.22h-2.865zM71.596 33.748a.68.68 0 0 1-.51.212.7.7 0 0 1-.504-.212.7.7 0 0 1-.212-.504v-5.79h-1.725a.6.6 0 0 1-.434-.183.6.6 0 0 1-.182-.433q0-.252.182-.434a.6.6 0 0 1 .434-.181h4.852q.252 0 .429.181a.6.6 0 0 1 .176.434.6.6 0 0 1-.176.433.58.58 0 0 1-.43.182h-1.694v5.79a.7.7 0 0 1-.207.505M82.283 33.96a.7.7 0 0 1-.51-.207.7.7 0 0 1-.207-.51v-6.445q0-.292.207-.505a.68.68 0 0 1 .51-.212q.292 0 .504.212a.7.7 0 0 1 .212.505v6.446q0 .302-.212.51a.7.7 0 0 1-.504.206"/><path fill="#F19A07" d="M79.437 11.077q-.85.378-2.684.377-1.865 0-2.633-.525-.77-.522-.77-1.8 0-1.505.998-2.436.999-.934 2.602-.934 1.963 0 2.798 1.343a5.7 5.7 0 0 1 .866 2.945q-.326.654-1.177 1.03m2.028-6.266q-1.473-2.258-4.384-2.258-1.735 0-3.109.867t-2.144 2.389Q71.06 7.33 71.06 9.26q0 2.685 1.308 4.04 1.31 1.36 4.026 1.36 3.436 0 4.417-2.39v.034q-.229 6.97-6.48 6.97-1.143 0-2.453-.394a2 2 0 0 0-.425-.065q-.556 0-.95.409-.391.41-.392 1.031 0 .523.343.949t.9.687q1.309.589 3.272.59 2.586 0 4.45-1.343 1.866-1.34 2.864-3.796.998-2.453.998-5.693v-1.21q0-3.37-1.473-5.63M42.3 18.744a.31.31 0 0 1-.565-.258 3.55 3.55 0 0 0 .308-1.666.311.311 0 0 1 .62-.037q.007.124.007.248c0 .596-.124 1.173-.37 1.713m-.887-3.732a3.5 3.5 0 0 0-.394-.468l-.465-.465a.31.31 0 1 1 .439-.44l.465.466q.256.256.463.55a.311.311 0 0 1-.508.357m-.567 5.451a4.14 4.14 0 0 1-1.874.685l-.034.001a.31.31 0 0 1-.032-.62c.57-.06 1.12-.261 1.591-.579a.31.31 0 1 1 .348.514m-3.682.159a.31.31 0 0 1-.413.147 4.1 4.1 0 0 1-1.146-.81 4 4 0 0 1-.395-.457.311.311 0 0 1 .498-.372q.154.207.336.389c.285.285.613.518.974.69.154.073.22.259.146.413m-2.42-2.944q-.013.003-.027.002a.31.31 0 0 1-.308-.284 4.108 4.108 0 0 1 .307-1.969.31.31 0 1 1 .572.24 3.5 3.5 0 0 0-.261 1.675.31.31 0 0 1-.283.336m1.306-4.018 1.316-1.317a.311.311 0 0 1 .44.439L36.488 14.1a.31.31 0 0 1-.22.09.31.31 0 0 1-.219-.53m2.809-2.81 1.317-1.318a.31.31 0 0 1 .44.44l-1.318 1.317a.312.312 0 0 1-.44 0 .31.31 0 0 1 0-.439m1.634-7.567a.31.31 0 0 1 .347-.516q.333.224.618.509.433.434.72.97a.31.31 0 1 1-.546.293 3.5 3.5 0 0 0-1.139-1.256m1.878 2.835a.31.31 0 0 1 .292.328 4.1 4.1 0 0 1-.592 1.904.313.313 0 0 1-.427.105.31.31 0 0 1-.103-.427c.294-.488.47-1.047.502-1.618a.31.31 0 0 1 .328-.292m-3.684-3.43h-.013a3.55 3.55 0 0 0-1.662.34.308.308 0 0 1-.413-.146.31.31 0 0 1 .146-.414 4.2 4.2 0 0 1 1.953-.4.31.31 0 0 1-.011.62m-2.195 6.45a.31.31 0 0 1-.44.44l-.447-.449a4.1 4.1 0 0 1-.775-1.071.31.31 0 1 1 .555-.278q.255.505.66.911zM34.69 6.18a.31.31 0 0 1-.282-.336 4.15 4.15 0 0 1 .644-1.887.31.31 0 1 1 .522.337 3.5 3.5 0 0 0-.548 1.603.31.31 0 0 1-.31.284zm32.365-1.794q-2.094-.459-3.664-1.063A39 39 0 0 1 59.988 1.8Q58.025.851 56.7.426 55.375 0 53.674 0q-1.31 0-2.437.41-1.13.409-1.783.9-.82.622-.82 1.34 0 .297.164.623.328.623 1.015.623.295 0 .687-.164 1.636-.72 3.076-.72 1.505 0 2.814.409 1.309.408 3.402 1.324 1.835.819 3.83 1.571l-1.522.507-1.424.475q-2.749.949-3.435 1.145-2.715.852-5.105 1.21-2.387.362-5.432.361H44.01c-.92 0-1.803.367-2.453 1.017l-1.805 1.806a1.447 1.447 0 0 0 0 2.045l.42.42c.454.454.736 1.063.743 1.706a2.385 2.385 0 0 1-1.92 2.362 2.382 2.382 0 0 1-2.147-4.023l5.414-5.415a5.24 5.24 0 0 0 1.545-3.729c0-1.408-.55-2.733-1.545-3.73a5.28 5.28 0 0 0-7.771.34 5.27 5.27 0 0 0-1.23 3.228 5.23 5.23 0 0 0 1.012 3.274l-.47.47a.79.79 0 0 1-.554.23h-4.536q-1.375 0-2.094-.59-.721-.587-1.505-2.03l-.687-1.274q-.918-1.67-1.669-2.684-.754-1.014-2.013-1.669-1.26-.654-3.19-.655-1.8 0-3.436.9a7.5 7.5 0 0 0-2.652 2.406q-1.014 1.505-1.013 3.207 0 2.388.998 3.665.998 1.275 3.68 1.8 2.096.39 3.044.653.95.262 1.358.638.41.377.41 1.064 0 1.962-2.209 2.896-2.21.932-6.627.932-3.075 0-4.859-.588-1.784-.59-2.569-1.932-.573-.977-.727-2.474a1.31 1.31 0 0 0-1.322-1.174c-.768.01-1.36.671-1.293 1.437q.333 3.767 2.524 5.68 2.585 2.259 8.082 2.258 5.531 0 8.41-1.881t2.88-5.318q0-2.094-1.064-3.337t-3.387-1.767q.009.003.014.002-.079-.026-.896-.232-1.932-.458-2.7-.72-.77-.262-1.113-.687-.344-.427-.344-1.276 0-.753.655-1.423.653-.67 1.734-1.097a6 6 0 0 1 2.225-.425q1.31 0 2.16.442a4.3 4.3 0 0 1 1.44 1.211q.589.77 1.374 2.209l.818 1.472q.687 1.275 1.358 2.013.67.736 1.669 1.145.575.236 1.335.336.551.072 1.2.073h4.307c.92 0 1.804-.366 2.453-1.016l1.823-1.825q.166-.166.268-.366a1.45 1.45 0 0 0-.268-1.678l-.447-.448a2.38 2.38 0 0 1-.67-2.051c.055-.377.205-.74.433-1.045a2.39 2.39 0 0 1 2.524-.9 2.393 2.393 0 0 1 1.773 2.498 2.45 2.45 0 0 1-.732 1.54l-5.373 5.372a5.23 5.23 0 0 0-1.544 3.729c0 1.41.547 2.735 1.544 3.73a5.25 5.25 0 0 0 3.729 1.542c1.35 0 2.701-.514 3.73-1.542a5.24 5.24 0 0 0 1.545-3.73c0-1.143-.361-2.23-1.029-3.131l.45-.449a.79.79 0 0 1 .554-.23h2.922q2.782 0 5.253-.475t5.579-1.588q1.11-.39 2.487-.931l2.127-.835a147 147 0 0 1 4.678-1.833q.72-.261 1.08-.654.36-.391.36-1.048 0-1.176-1.211-1.471M.442 5.799A1.5 1.5 0 0 0 0 6.879Q0 7.5.442 7.943q.44.442 1.063.442.621 0 1.08-.442.458-.443.458-1.064 0-.622-.459-1.08a1.48 1.48 0 0 0-1.08-.459q-.621 0-1.062.459M.442 9.399A1.5 1.5 0 0 0 0 10.479q0 .622.442 1.063.44.442 1.063.442.621 0 1.08-.442.458-.44.458-1.063a1.48 1.48 0 0 0-.459-1.08 1.48 1.48 0 0 0-1.08-.457q-.621 0-1.062.457M57.824 16.215a1.5 1.5 0 0 0-1.08-.442q-.623 0-1.064.442a1.45 1.45 0 0 0-.442 1.062q0 .623.442 1.081t1.063.457q.623 0 1.081-.457.458-.458.457-1.08.001-.622-.457-1.063"/><path fill="#F19A07" d="M28.004.443a1.5 1.5 0 0 0-1.081-.442q-.62 0-1.063.442a1.45 1.45 0 0 0-.442 1.063q0 .622.442 1.08t1.063.458q.622 0 1.08-.457.458-.46.458-1.081 0-.62-.457-1.063m3.599 0a1.5 1.5 0 0 0-1.081-.442q-.62 0-1.063.442a1.45 1.45 0 0 0-.442 1.063q0 .622.442 1.08t1.063.458q.622 0 1.08-.457.459-.46.458-1.081 0-.62-.457-1.063"/></svg>