<svg xmlns="http://www.w3.org/2000/svg" width="24" height="24" fill="none"><path stroke="#B9B5B1" stroke-width="1.5" d="M3.094 6.844c0-1.768 0-2.652.549-3.201.55-.55 1.433-.55 3.2-.55 1.769 0 2.652 0 3.202.55s.549 1.433.549 3.2c0 1.769 0 2.652-.55 3.202-.549.549-1.432.549-3.2.549s-2.652 0-3.201-.55c-.55-.549-.55-1.432-.55-3.2ZM13.406 17.156c0-1.767 0-2.651.55-3.2.549-.55 1.433-.55 3.2-.55s2.652 0 3.201.55c.55.549.55 1.433.55 3.2s0 2.652-.55 3.201c-.55.55-1.433.55-3.2.55s-2.652 0-3.202-.55-.549-1.433-.549-3.2ZM3.094 17.156c0-1.767 0-2.651.549-3.2.55-.55 1.433-.55 3.2-.55 1.769 0 2.652 0 3.202.55.549.549.549 1.433.549 3.2s0 2.652-.55 3.201c-.549.55-1.432.55-3.2.55s-2.652 0-3.201-.55c-.55-.55-.55-1.433-.55-3.2ZM13.406 6.844c0-1.768 0-2.652.55-3.201.549-.55 1.433-.55 3.2-.55s2.652 0 3.201.55c.55.55.55 1.433.55 3.2 0 1.769 0 2.652-.55 3.202s-1.433.549-3.2.549-2.652 0-3.202-.55c-.549-.549-.549-1.432-.549-3.2Z"/></svg>